<?xml version="1.0" standalone="no"?>
<!DOCTYPE svg PUBLIC "-//W3C//DTD SVG 20010904//EN"
 "http://www.w3.org/TR/2001/REC-SVG-20010904/DTD/svg10.dtd">
<svg version="1.0" xmlns="http://www.w3.org/2000/svg"
 width="256.000000pt" height="256.000000pt" viewBox="0 0 256.000000 256.000000"
 preserveAspectRatio="xMidYMid meet">

<g transform="translate(0.000000,256.000000) scale(0.100000,-0.100000)"
fill="#000000" stroke="none">
<path d="M1368 1764 c-138 -44 -198 -110 -164 -181 9 -19 20 -33 25 -31 5 2
63 56 130 121 76 72 115 117 104 117 -10 -1 -53 -12 -95 -26z"/>
<path d="M780 1635 c-74 -74 -81 -85 -60 -85 14 0 30 4 36 8 9 6 115 162 110
162 -1 0 -39 -38 -86 -85z"/>
<path d="M1608 1553 l-137 -137 -34 32 -33 32 -29 -30 -29 -30 109 -110 c60
-61 115 -110 121 -110 6 0 21 11 34 25 l24 26 -32 32 -32 32 142 142 c113 113
140 145 130 155 -10 10 -42 -17 -155 -130 l-143 -143 -24 26 -24 26 138 138
c121 121 150 161 118 161 -4 0 -69 -62 -144 -137z"/>
<path d="M380 1283 c-107 -109 -225 -230 -263 -269 l-69 -72 22 -68 c29 -89
96 -224 149 -303 l43 -63 136 134 c76 73 262 257 415 408 l278 275 -45 42
c-67 64 -108 55 -131 -27 -4 -14 -26 -44 -48 -68 l-41 -42 -126 125 -126 125
-194 -197z"/>
<path d="M714 875 c-220 -223 -400 -411 -402 -419 -4 -18 148 -160 239 -223
172 -118 411 -209 567 -216 l61 -2 338 337 c186 185 328 332 315 327 -36 -14
-85 -10 -113 9 -14 9 -152 145 -305 302 -153 157 -284 286 -290 288 -6 2 -191
-180 -410 -403z m509 187 l37 -38 -132 -130 c-73 -72 -157 -145 -186 -163 -50
-32 -53 -33 -72 -16 -19 17 -19 18 6 69 18 36 64 89 162 183 75 73 139 133
142 133 3 0 23 -17 43 -38z"/>
</g>
</svg>
